<svg width="595" height="480" xmlns="http://www.w3.org/2000/svg">

 <g>
  <title>background</title>
  <rect fill="none" id="canvas_background" height="482" width="597" y="-1" x="-1"/>
 </g>
 <g>
  <title>Layer 1</title>
  <path id="svg_1" fill="#16182C" d="m428.022,34.1264c54.346,17.9246 108.634,35.5726 137.651,68.8486c28.96,32.999 33.007,81.553 24.842,130.901c-7.863,48.997 -27.94,98.788 -66.453,142.864c-38.931,43.873 -96.183,82.584 -159.429,95.962c-63.188,13.656 -131.952,2.181 -179.991,-25.136c-47.735,-27.669 -74.802,-71.458 -108.401,-114.185c-33.2384,-42.8 -73.4256,-84.74 -75.1016,-130.896c-1.3737,-46.508 35.7639,-97.23 85.7086,-135.007c50.303,-37.8506 113.055,-62.6803 172.38,-66.0047c58.908,-3.5269 114.088,14.8028 168.794,32.6531z"/>
 </g>
</svg>